<svg xmlns="http://www.w3.org/2000/svg" viewBox="0 0 110 40"><title>itunes-get</title><path d="M103.4 0H3.8L2.5.6l-1.1.8A4.6 4.6 0 0 0 .1 3.8 9.2 9.2 0 0 0 0 5.2v29.6a9.1 9.1 0 0 0 .1 1.4 4.6 4.6 0 0 0 .4 1.3 4.4 4.4 0 0 0 .8 1.1l1.1.8 1.3.4h102.5l1.3-.4 1.1-.8a4.4 4.4 0 0 0 .8-1.1 4.6 4.6 0 0 0 .4-1.3 9.1 9.1 0 0 0 .1-1.4V6.6v-.8-.6a9.3 9.3 0 0 0-.1-1.4 4.6 4.6 0 0 0-1.3-2.5l-1-.7-1.3-.5h-2.8z" fill="#a6a6a6"/><path d="M103.4 1h2.6l1.1.3.9.6.6.9a3.7 3.7 0 0 1 .3 1A8.2 8.2 0 0 1 109 5V34.8a8.4 8.4 0 0 1-.1 1.2 3.9 3.9 0 0 1-.3 1.1l-.6.9-.9.6-1 .3H4l-1-.4-.9-.6-.7-.9a3.9 3.9 0 0 1-.3-1 7.6 7.6 0 0 1-.1-1.3V5.9v-.6A7.6 7.6 0 0 1 1.1 4a3.8 3.8 0 0 1 .3-1l.6-.9 1-.7 1-.3h99.4"/><path d="M30.1 19.8a5.8 5.8 0 0 1 2.8-4.9 5.9 5.9 0 0 0-4.7-2.5c-2-.2-3.9 1.2-4.9 1.2s-2.6-1.2-4.2-1.1a6.2 6.2 0 0 0-5.2 3.2c-2.3 3.9-.6 9.7 1.6 12.9 1.1 1.6 2.4 3.3 4 3.2s2.2-1 4.2-1 2.5 1 4.2 1 2.8-1.6 3.9-3.1a12.8 12.8 0 0 0 1.8-3.6 5.6 5.6 0 0 1-3.5-5.3zM26.9 10.3a5.7 5.7 0 0 0 1.3-4.1 5.8 5.8 0 0 0-3.8 1.9 5.4 5.4 0 0 0-1.3 3.9 4.8 4.8 0 0 0 3.8-1.7zM49.5 13.1a5.4 5.4 0 0 1-1.9.3 3.3 3.3 0 0 1-2.4-.8 3.1 3.1 0 0 1-.9-2.3 3.1 3.1 0 0 1 .9-2.4 3.4 3.4 0 0 1 2.5-.9 3.6 3.6 0 0 1 1.6.3l-.2.8a3.3 3.3 0 0 0-1.4-.3 2.3 2.3 0 0 0-1.7.6 2.3 2.3 0 0 0-.6 1.8A2.4 2.4 0 0 0 46 12a2.1 2.1 0 0 0 1.6.6h.9v-1.8h-1.1V10h2.1v3.1zM54.7 10.9a2.5 2.5 0 0 1 0 .5h-3a1.3 1.3 0 0 0 .4 1 1.5 1.5 0 0 0 1 .3l1.2-.2.2.7a3.8 3.8 0 0 1-1.5.3 2.2 2.2 0 0 1-1.7-.6 2.3 2.3 0 0 1-.6-1.7 2.6 2.6 0 0 1 .6-1.7 1.9 1.9 0 0 1 1.6-.7 1.7 1.7 0 0 1 1.5.7 2.4 2.4 0 0 1 .3 1.4zm-1-.3a1.4 1.4 0 0 0-.2-.8.9.9 0 0 0-.8-.4 1 1 0 0 0-.8.4 1.5 1.5 0 0 0-.3.8h2.1zM58.3 9.6h-1.1v2.2q0 .8.6.8h.4v.8h-.8a1.2 1.2 0 0 1-.9-.4 1.8 1.8 0 0 1-.3-1.2V9.6h-.7v-.8h.7V8l1-.3v1.1h1.1zM63.3 7.5a.6.6 0 0 1-.2.4l-.5.2-.4-.2a.6.6 0 0 1-.2-.4.6.6 0 0 1 .2-.4l.4-.2.4.2a.6.6 0 0 1 .3.4zm-.1 5.9h-1V8.8h1zM67.1 9.6H66v2.2q0 .8.6.8h.4v.8h-.8a1.2 1.2 0 0 1-.9-.4 1.8 1.8 0 0 1-.3-1.2V9.6h-.7v-.8h.7V8l1-.3v1.1h1.1v.8zM75 11.1a2.5 2.5 0 0 1-.6 1.7 2.1 2.1 0 0 1-1.7.7 2 2 0 0 1-1.6-.7 2.4 2.4 0 0 1-.6-1.7 2.5 2.5 0 0 1 .6-1.7 2.1 2.1 0 0 1 1.6-.7 2.1 2.1 0 0 1 1.6.7 2.4 2.4 0 0 1 .7 1.7zm-1 0a2.1 2.1 0 0 0-.3-1.1 1 1 0 0 0-.9-.5 1 1 0 0 0-.9.5 2.1 2.1 0 0 0-.3 1.1 2 2 0 0 0 .3 1.1 1 1 0 0 0 .9.5 1 1 0 0 0 .9-.6 2 2 0 0 0 .3-1zM80.3 13.4h-1v-2.6q0-1.2-.9-1.2a.9.9 0 0 0-.7.3 1.2 1.2 0 0 0-.3.8v2.7h-1v-3.3-1.3h.9v.7l.5-.5.9-.3a1.4 1.4 0 0 1 1.1.4 2 2 0 0 1 .5 1.5v2.7zM47 19a1.2 1.2 0 0 1-.4.9 1.3 1.3 0 0 1-1 .4 1.2 1.2 0 0 1-.9-.4 1.2 1.2 0 0 1-.4-.9 1.2 1.2 0 0 1 .4-.9 1.4 1.4 0 0 1 1.9 0 1.2 1.2 0 0 1 .4.9zm-.2 12.5h-2.1v-9.6h2.1zM58.3 20h-3.8v11.5h-2.2V20h-3.8v-1.8h9.7zM67.2 31.5h-1.9V30a3.3 3.3 0 0 1-3 1.7 3 3 0 0 1-2.3-.9 4.7 4.7 0 0 1-1-3.3v-5.6h2v5.3q0 2.8 1.8 2.8a2 2 0 0 0 2-1.4 2.2 2.2 0 0 0 .1-.8v-5.9H67v6.8l.2 2.8zM78.4 31.5h-2.1V26q0-2.5-1.9-2.5a1.9 1.9 0 0 0-1.5.7 2.5 2.5 0 0 0-.6 1.6v5.7h-2.2v-6.9q0-1.3-.1-2.7h1.9v1.5h.1a3.1 3.1 0 0 1 1.1-1.2 3.6 3.6 0 0 1 1.9-.5 3.1 3.1 0 0 1 2.2.9 4.2 4.2 0 0 1 1.1 3.2v5.7zM89.3 26.2a5 5 0 0 1-.1 1h-6.4a2.8 2.8 0 0 0 .9 2.2 3.2 3.2 0 0 0 2.1.7 7 7 0 0 0 2.6-.5l.3 1.5a8 8 0 0 1-3.2.6 4.7 4.7 0 0 1-3.5-1.3 4.8 4.8 0 0 1-1.3-3.5 5.5 5.5 0 0 1 1.2-3.6 4.1 4.1 0 0 1 3.4-1.5 3.6 3.6 0 0 1 3.1 1.5 5.2 5.2 0 0 1 .9 2.9zm-2-.6a2.9 2.9 0 0 0-.4-1.6 1.9 1.9 0 0 0-1.7-.9 2 2 0 0 0-1.7.9 3.2 3.2 0 0 0-.6 1.7h4.4zM97.5 28.7a2.6 2.6 0 0 1-1 2.1 4.2 4.2 0 0 1-2.7.8A5.6 5.6 0 0 1 91 31l.5-1.6a4.5 4.5 0 0 0 2.4.7q1.6 0 1.6-1.2a1.2 1.2 0 0 0-.4-.9 3.7 3.7 0 0 0-1.3-.7q-2.6-.9-2.6-2.8a2.6 2.6 0 0 1 .9-2.1 3.7 3.7 0 0 1 2.5-.8 4.8 4.8 0 0 1 2.4.6l-.5 1.5a3.8 3.8 0 0 0-2-.6 1.6 1.6 0 0 0-1 .3 1 1 0 0 0-.4.8 1 1 0 0 0 .4.8l1.3.6q2.7 1.2 2.7 3.1z" fill="#fff"/></svg>